<svg width="132" height="60" viewBox="0 0 132 60" fill="none" xmlns="http://www.w3.org/2000/svg"><path fill-rule="evenodd" clip-rule="evenodd" d="M88.911 32.038a23.312 23.312 0 00-.032-4.41h-.895v3.547h-.001c0 .566.345.854.928.863zm-.157 1.338C87.12 44.478 77.556 53 66 53c-12.703 0-23-10.297-23-23S53.297 7 66 7c11.543 0 21.1 8.503 22.749 19.587h-.765v-2.116h-1.245v2.116h-.716v1.042h.716v3.647c0 .728.01 1.253.424 1.592.406.331.823.5 1.59.508zm-33.137-17.92c9.118 0 8.574 7.361 8.574 7.361v12.974s.2 7.308-8.592 7.308-8.466-7.308-8.466-7.308V22.855s-.634-7.4 8.484-7.4zm-2.815 7.38l-.03 12.952s-.154 2.19 2.836 2.19c2.99 0 2.93-2.19 2.93-2.19V22.837s.055-2.387-2.899-2.374c-2.955.011-2.837 2.374-2.837 2.374zm22.2-7.375v27.628H69.3l-.03-21.207h-4.04v-3.916l9.774-2.505zm2.845 11.627v-.5H76.36v6.789h1.554v-4.835c0-.232.058-.41.174-.534a.612.612 0 01.469-.186c.187 0 .341.061.462.186.12.125.18.302.18.534v4.835h1.555v-4.849c0-1.363-.576-2.044-1.728-2.044-.456 0-.85.2-1.18.604zm4.996 4.038c0 .695.233 1.042.696 1.042.456 0 .683-.287.683-.862v-.064h1.5v.078c0 .712-.187 1.249-.562 1.613-.375.365-.916.546-1.62.546-.715 0-1.269-.205-1.662-.617-.393-.412-.589-1.093-.589-2.045V29.16c0-.926.185-1.603.556-2.032.37-.428.922-.642 1.654-.642.723 0 1.284.218 1.681.655.398.438.596 1.11.596 2.02v1.35h-2.933v.616zm0-2.199v.501h1.38v-.5c0-.386-.059-.667-.174-.843-.116-.175-.291-.263-.523-.263a.572.572 0 00-.51.263c-.115.176-.173.457-.173.842z" fill="#8A8C98"/></svg>